<svg id="Layer_1" data-name="Layer 1" xmlns="http://www.w3.org/2000/svg" viewBox="0 0 211 50"><defs><style>.cls-1{fill:#ffac12;}</style></defs><path class="cls-1" d="M0,0H193a18,18,0,0,1,18,18V50H0Z" transform="translate(0 0)"/><path d="M80.77,31.22a6,6,0,0,1-3.09-.76,5.13,5.13,0,0,1-2-2.16,7,7,0,0,1-.7-3.22,7,7,0,0,1,.7-3.21,5.1,5.1,0,0,1,2-2.17,5.77,5.77,0,0,1,3.09-.79A5.49,5.49,0,0,1,84.27,20,4.63,4.63,0,0,1,86,23h-2.4a2.48,2.48,0,0,0-1-1.51,3,3,0,0,0-1.9-.56A3.19,3.19,0,0,0,78.15,22a4.67,4.67,0,0,0-.93,3.07,4.68,4.68,0,0,0,.93,3.08,3.66,3.66,0,0,0,4.49.6,2.43,2.43,0,0,0,1-1.45H86a4.45,4.45,0,0,1-1.72,2.87A5.54,5.54,0,0,1,80.77,31.22Zm10.76,0a4.63,4.63,0,0,1-2.26-.54,3.91,3.91,0,0,1-1.54-1.53,4.49,4.49,0,0,1-.57-2.28,4.92,4.92,0,0,1,.55-2.33A4,4,0,0,1,89.24,23a4.45,4.45,0,0,1,2.31-.58,4.24,4.24,0,0,1,2.19.55,3.79,3.79,0,0,1,1.48,1.49,4,4,0,0,1,.55,2.09c0,.13,0,.26,0,.39s0,.28,0,.43H89.32A2.28,2.28,0,0,0,90,28.88a2.23,2.23,0,0,0,1.52.56,2,2,0,0,0,1.1-.29,2,2,0,0,0,.68-.78h2.21a4,4,0,0,1-.8,1.46,3.78,3.78,0,0,1-1.36,1A4.23,4.23,0,0,1,91.53,31.22Zm0-7.07a2.27,2.27,0,0,0-1.41.46A2,2,0,0,0,89.36,26h4.2a1.84,1.84,0,0,0-.62-1.33A2,2,0,0,0,91.55,24.15ZM97.17,31V18.78h2.18V26l3-3.41h2.58l-3.45,3.84,4,4.59h-2.72l-3.41-4.24V31Zm10.41-9.74a1.4,1.4,0,0,1-1-.36,1.19,1.19,0,0,1-.37-.9,1.16,1.16,0,0,1,.37-.89,1.44,1.44,0,0,1,1-.35,1.39,1.39,0,0,1,1,.35,1.14,1.14,0,0,1,.39.89,1.17,1.17,0,0,1-.39.9A1.35,1.35,0,0,1,107.58,21.28ZM106.49,31V22.59h2.18V31Zm7.9.2a3.91,3.91,0,0,1-2.13-.58,4.1,4.1,0,0,1-1.48-1.58,4.74,4.74,0,0,1-.54-2.28,4.63,4.63,0,0,1,.54-2.26A4,4,0,0,1,112.26,23a3.91,3.91,0,0,1,2.13-.58,3.63,3.63,0,0,1,1.66.36,3,3,0,0,1,1.16,1v-5h2.17V31h-1.93l-.24-1.21a4,4,0,0,1-1.09,1A3.19,3.19,0,0,1,114.39,31.22Zm.45-1.9a2.24,2.24,0,0,0,1.72-.7,2.51,2.51,0,0,0,.68-1.82,2.44,2.44,0,0,0-.68-1.8,2.21,2.21,0,0,0-1.72-.71,2.29,2.29,0,0,0-1.71.69,2.46,2.46,0,0,0-.68,1.8,2.49,2.49,0,0,0,.68,1.82A2.24,2.24,0,0,0,114.84,29.32Zm10.38,1.9a4.43,4.43,0,0,1-2.21-.56,4.19,4.19,0,0,1-1.55-1.55,4.67,4.67,0,0,1-.56-2.31,4.38,4.38,0,0,1,.58-2.29A4.17,4.17,0,0,1,123,22.94a4.4,4.4,0,0,1,2.21-.56,4.28,4.28,0,0,1,2.17.56A4.1,4.1,0,0,1,129,24.51a4.48,4.48,0,0,1,.58,2.29,4.58,4.58,0,0,1-.58,2.31,4,4,0,0,1-1.55,1.55A4.41,4.41,0,0,1,125.22,31.22Zm0-1.88a2,2,0,0,0,1.48-.63,2.63,2.63,0,0,0,.63-1.91,2.57,2.57,0,0,0-.63-1.89,2,2,0,0,0-1.46-.64,2,2,0,0,0-1.5.64,2.6,2.6,0,0,0-.61,1.89,2.67,2.67,0,0,0,.61,1.91A2,2,0,0,0,125.22,29.34ZM134.48,31a3.27,3.27,0,0,1-2.12-.65,2.77,2.77,0,0,1-.8-2.29V24.4h-1.45V22.59h1.45l.25-2.27h1.92v2.27H136V24.4h-2.28v3.69a1.12,1.12,0,0,0,.26.85,1.44,1.44,0,0,0,.92.23H136V31Z" transform="translate(0 0)"/></svg>