<?xml version="1.0" encoding="utf-8"?>
<!-- Generator: Adobe Illustrator 24.3.0, SVG Export Plug-In . SVG Version: 6.00 Build 0)  -->
<svg version="1.1" id="Layer_1" xmlns="http://www.w3.org/2000/svg" xmlns:xlink="http://www.w3.org/1999/xlink" x="0px" y="0px"
	 viewBox="0 0 209 70" style="enable-background:new 0 0 209 70;" xml:space="preserve">
<style type="text/css">
	.st0{fill:#FFAC12;}
	.st1{fill:#FFFFFF;}
</style>
<path d="M0,0h191c9.9,0,18,8.1,18,18v52H0V0z"/>
<g>
	<path class="st0" d="M168.6,34.4l-4-4c-0.2-0.2-0.6-0.3-0.9-0.2c-0.3,0.1-0.5,0.4-0.5,0.8v2.5c0,0.1-0.1,0.2-0.2,0.2h-12.9
		c-0.7,0-1.2,0.6-1.2,1.2c0,0.7,0.6,1.2,1.2,1.2H163c0.1,0,0.2,0.1,0.2,0.2V39c0,0.3,0.2,0.6,0.5,0.8c0.3,0.1,0.7,0.1,0.9-0.2l4-4
		C168.9,35.3,168.9,34.7,168.6,34.4z"/>
	<path class="st1" d="M46,39.5c-1.2,0-2.2-0.3-3.1-0.8c-0.9-0.5-1.5-1.2-2-2.2c-0.5-0.9-0.7-2-0.7-3.2s0.2-2.3,0.7-3.2
		s1.1-1.7,2-2.2c0.9-0.5,1.9-0.8,3.1-0.8c1.4,0,2.6,0.4,3.5,1.1c0.9,0.7,1.5,1.7,1.7,3h-2.4c-0.1-0.6-0.5-1.2-1-1.5
		c-0.5-0.4-1.1-0.6-1.9-0.6c-1.1,0-2,0.4-2.6,1.1c-0.6,0.7-0.9,1.8-0.9,3.1s0.3,2.3,0.9,3.1c0.6,0.7,1.5,1.1,2.6,1.1
		c0.8,0,1.4-0.2,1.9-0.5c0.5-0.4,0.8-0.8,1-1.4h2.4c-0.2,1.2-0.8,2.2-1.7,2.9C48.6,39.1,47.4,39.5,46,39.5z M56.7,39.5
		c-0.9,0-1.6-0.2-2.3-0.5c-0.7-0.4-1.2-0.9-1.5-1.5c-0.4-0.7-0.6-1.4-0.6-2.3c0-0.9,0.2-1.6,0.5-2.3c0.4-0.7,0.9-1.2,1.5-1.6
		c0.7-0.4,1.4-0.6,2.3-0.6c0.8,0,1.6,0.2,2.2,0.5c0.6,0.4,1.1,0.9,1.5,1.5c0.4,0.6,0.5,1.3,0.5,2.1c0,0.1,0,0.3,0,0.4
		c0,0.1,0,0.3,0,0.4h-6.4c0,0.7,0.3,1.2,0.7,1.5c0.4,0.4,0.9,0.6,1.5,0.6c0.4,0,0.8-0.1,1.1-0.3c0.3-0.2,0.5-0.5,0.7-0.8h2.2
		c-0.2,0.5-0.4,1-0.8,1.5c-0.4,0.4-0.8,0.8-1.4,1C58,39.3,57.4,39.5,56.7,39.5z M56.8,32.4c-0.5,0-1,0.2-1.4,0.5
		c-0.4,0.3-0.7,0.7-0.8,1.4h4.2c0-0.6-0.2-1-0.6-1.3S57.3,32.4,56.8,32.4z M62.4,39.2V27h2.2v7.2l3-3.4h2.6l-3.5,3.8l4,4.6H68
		L64.5,35v4.2H62.4z M79.1,39.5c-0.8,0-1.5-0.2-2.1-0.6s-1.1-0.9-1.5-1.6C75.1,36.6,75,35.9,75,35c0-0.9,0.2-1.6,0.5-2.3
		c0.4-0.7,0.9-1.2,1.5-1.6c0.6-0.4,1.3-0.6,2.1-0.6c0.6,0,1.2,0.1,1.7,0.4c0.5,0.2,0.9,0.6,1.2,1v-5h2.2v12.2h-1.9L81.9,38
		c-0.3,0.4-0.6,0.7-1.1,1C80.4,39.3,79.8,39.5,79.1,39.5z M79.6,37.5c0.7,0,1.3-0.2,1.7-0.7c0.5-0.5,0.7-1.1,0.7-1.8
		s-0.2-1.3-0.7-1.8c-0.4-0.5-1-0.7-1.7-0.7c-0.7,0-1.3,0.2-1.7,0.7s-0.7,1.1-0.7,1.8c0,0.7,0.2,1.3,0.7,1.8
		C78.3,37.3,78.9,37.5,79.6,37.5z M87.1,29.5c-0.4,0-0.7-0.1-1-0.4c-0.2-0.2-0.4-0.5-0.4-0.9c0-0.4,0.1-0.7,0.4-0.9
		c0.3-0.2,0.6-0.4,1-0.4c0.4,0,0.7,0.1,1,0.4c0.3,0.2,0.4,0.5,0.4,0.9c0,0.4-0.1,0.7-0.4,0.9C87.8,29.4,87.5,29.5,87.1,29.5z
		 M86,39.2v-8.4h2.2v8.4H86z M93.7,39.2V27.4h2.6l3.8,7.5l3.7-7.5h2.6v11.9h-2.2V31l-3.3,6.5h-1.7L95.8,31v8.2H93.7z M111.1,39.5
		c-0.7,0-1.3-0.1-1.8-0.3c-0.5-0.2-0.8-0.5-1-0.9c-0.2-0.4-0.3-0.8-0.3-1.3c0-0.8,0.3-1.4,0.9-1.9s1.5-0.7,2.8-0.7h2.1v-0.2
		c0-0.6-0.2-1-0.5-1.3c-0.3-0.3-0.7-0.4-1.2-0.4c-0.4,0-0.8,0.1-1.2,0.3c-0.3,0.2-0.5,0.5-0.6,0.9h-2.1c0.1-0.6,0.3-1.1,0.6-1.6
		c0.4-0.5,0.8-0.8,1.4-1c0.6-0.2,1.2-0.4,1.9-0.4c1.2,0,2.1,0.3,2.8,0.9c0.7,0.6,1,1.5,1,2.5v5.2h-1.9l-0.2-1.4
		c-0.2,0.5-0.6,0.8-1.1,1.1C112.4,39.3,111.8,39.5,111.1,39.5z M111.6,37.8c0.6,0,1.1-0.2,1.4-0.6c0.4-0.4,0.6-0.9,0.7-1.5h-1.9
		c-0.6,0-1,0.1-1.2,0.3c-0.2,0.2-0.4,0.5-0.4,0.8c0,0.3,0.1,0.6,0.4,0.8C110.9,37.7,111.2,37.8,111.6,37.8z M117.6,43V30.8h1.9
		l0.2,1.2c0.3-0.4,0.6-0.7,1.1-1c0.5-0.3,1-0.4,1.8-0.4c0.8,0,1.5,0.2,2.1,0.6c0.6,0.4,1.1,0.9,1.5,1.6c0.4,0.7,0.5,1.4,0.5,2.3
		c0,0.9-0.2,1.6-0.5,2.3c-0.4,0.7-0.9,1.2-1.5,1.6c-0.6,0.4-1.3,0.6-2.1,0.6c-0.6,0-1.2-0.1-1.7-0.4s-0.9-0.6-1.2-1V43H117.6z
		 M122.1,37.5c0.7,0,1.3-0.2,1.7-0.7s0.7-1.1,0.7-1.8c0-0.7-0.2-1.3-0.7-1.8c-0.5-0.5-1-0.7-1.7-0.7c-0.7,0-1.3,0.2-1.7,0.7
		c-0.4,0.5-0.7,1.1-0.7,1.8s0.2,1.3,0.7,1.8C120.8,37.3,121.4,37.5,122.1,37.5z M131.7,39.5c-0.7,0-1.4-0.1-2-0.4
		c-0.6-0.2-1-0.6-1.4-1c-0.3-0.4-0.5-0.9-0.6-1.5h2.2c0.1,0.3,0.2,0.6,0.5,0.8c0.3,0.2,0.7,0.3,1.2,0.3s0.8-0.1,1-0.3
		c0.2-0.2,0.3-0.4,0.3-0.7c0-0.4-0.2-0.6-0.5-0.7c-0.3-0.1-0.8-0.3-1.3-0.4c-0.4-0.1-0.7-0.2-1.1-0.3c-0.4-0.1-0.7-0.3-1-0.4
		c-0.3-0.2-0.6-0.4-0.7-0.7c-0.2-0.3-0.3-0.6-0.3-1c0-0.7,0.3-1.4,0.9-1.9c0.6-0.5,1.4-0.8,2.5-0.8c1,0,1.8,0.2,2.4,0.7
		c0.6,0.5,1,1.1,1.1,1.9h-2.1c-0.1-0.6-0.6-0.9-1.4-0.9c-0.4,0-0.7,0.1-1,0.2c-0.2,0.2-0.3,0.4-0.3,0.6c0,0.2,0.2,0.4,0.5,0.6
		c0.3,0.1,0.8,0.3,1.3,0.4c0.6,0.1,1.1,0.3,1.6,0.5c0.5,0.2,0.9,0.4,1.2,0.7c0.3,0.3,0.4,0.8,0.4,1.4c0,0.5-0.1,1-0.4,1.4
		c-0.3,0.4-0.7,0.7-1.2,1C133.1,39.3,132.5,39.5,131.7,39.5z"/>
</g>
</svg>
