<?xml version="1.0" encoding="utf-8"?>
<!-- Generator: Adobe Illustrator 24.3.0, SVG Export Plug-In . SVG Version: 6.00 Build 0)  -->
<svg version="1.1" id="Layer_1" xmlns="http://www.w3.org/2000/svg" xmlns:xlink="http://www.w3.org/1999/xlink" x="0px" y="0px"
	 viewBox="0 0 209 70" style="enable-background:new 0 0 209 70;" xml:space="preserve">
<style type="text/css">
	.btn-bg{fill:url(#btn-gradient);}
	.btn-text{fill:#FFFFFF; font-family:'Poppins', sans-serif; font-weight:600;}
	.btn-icon{fill:#FFFFFF;}
	.btn-arrow{fill:none;stroke:#FFFFFF;stroke-width:2.5;stroke-linecap:round;stroke-linejoin:round;}
</style>
<defs>
	<linearGradient id="btn-gradient" x1="0%" y1="0%" x2="100%" y2="100%">
		<stop offset="0%" style="stop-color:#FF7F00"/>
		<stop offset="100%" style="stop-color:#FF5500"/>
	</linearGradient>
</defs>
<!-- Button background with rounded corners and gradient -->
<path class="btn-bg" d="M18,0h173c9.9,0,18,8.1,18,18v34c0,9.9-8.1,18-18,18H18C8.1,70,0,61.9,0,52V18C0,8.1,8.1,0,18,0z"/>

<!-- Maps pin icon -->
<path class="btn-icon" d="M28,25c-4.4,0-8,3.6-8,8c0,5.9,7.2,12,7.5,12.2c0.3,0.3,0.7,0.3,1,0C28.8,45,36,38.9,36,33
	C36,28.6,32.4,25,28,25z M28,37c-2.2,0-4-1.8-4-4s1.8-4,4-4s4,1.8,4,4S30.2,37,28,37z"/>

<!-- Button Text -->
<text x="48" y="38" class="btn-text" font-size="18">Cek di Maps</text>

<!-- Right arrow -->
<path class="btn-arrow" d="M151 35L161 35M161 35L156 30M161 35L156 40"/>
</svg>
